<svg xmlns="http://www.w3.org/2000/svg" viewBox="0 0 900 1200">
<defs>
<linearGradient id="bg" x1="0" y1="0" x2="1" y2="1"><stop offset="0" stop-color="#17071f"/><stop offset=".55" stop-color="#db2777"/><stop offset="1" stop-color="#020617"/></linearGradient>
<linearGradient id="textFade" x1="0" y1="0" x2="0" y2="1"><stop offset="0" stop-color="#000" stop-opacity="0"/><stop offset=".55" stop-color="#000" stop-opacity=".42"/><stop offset="1" stop-color="#000" stop-opacity=".88"/></linearGradient>
<radialGradient id="glow" cx="72%" cy="20%" r="65%"><stop stop-color="#ffffff" stop-opacity=".34"/><stop offset="1" stop-color="#ffffff" stop-opacity="0"/></radialGradient>
<filter id="shadow" x="-20%" y="-20%" width="140%" height="140%"><feDropShadow dx="0" dy="28" stdDeviation="30" flood-color="#000" flood-opacity=".38"/></filter>
<pattern id="grain" width="70" height="70" patternUnits="userSpaceOnUse"><circle cx="8" cy="12" r="2" fill="#fff" opacity=".08"/><circle cx="52" cy="28" r="1.5" fill="#fff" opacity=".06"/><circle cx="32" cy="55" r="1.2" fill="#fff" opacity=".07"/></pattern>
</defs>
<rect width="900" height="1200" fill="url(#bg)"/>
<rect width="900" height="1200" fill="url(#glow)"/>
<rect width="900" height="1200" fill="url(#grain)" opacity=".55"/>
<circle cx="155" cy="215" r="95" fill="#fff" opacity=".09"/>
<circle cx="795" cy="865" r="210" fill="#000" opacity=".16"/>
<g filter="url(#shadow)">
        <path d="M290 305 h330 v70 H360 v352 q0 65-59 101 q-67 41-130 15 q-54-22-45-77 q8-53 69-79 q43-18 95-7Z" fill="#fde68a" opacity=".88"/>
        <path d="M620 375 v300 q0 66-58 102 q-65 39-129 15 q-56-22-47-78 q8-52 67-78 q43-19 96-8V375Z" fill="#fbbf24" opacity=".82"/>
        <circle cx="705" cy="270" r="80" fill="#ffffff" opacity=".15"/>
        </g>
<rect x="0" y="730" width="900" height="470" fill="url(#textFade)" opacity="1"/>
<path d="M0 735 C180 665 330 725 500 650 C650 585 760 645 900 585 L900 1200 L0 1200Z" fill="#000" opacity=".26"/>
<text x="92" y="102" font-size="31" fill="#fde68a" font-weight="900" font-family="Arial, Helvetica, sans-serif">Bíbliaflix</text>
<text x="450" y="840" text-anchor="middle" font-size="62" font-weight="900" fill="#fff" font-family="Arial, Helvetica, sans-serif">Cânticos</text>
<text x="450" y="930" text-anchor="middle" font-size="30" font-weight="700" fill="#fff" opacity=".78" font-family="Arial, Helvetica, sans-serif">Amor e aliança</text>
</svg>